# xmcd
#
# Track frame offsets: 
#        150
#        17145
#        25875
#        46372
#        67125
#        89100
#        104400
#        124177
#        144300
#
# Disc length: 2167 seconds
#
# Revision: 1
# Processed by: cddbd v1.5.2PL0 Copyright (c) Steve Scherf et al.
# Submitted via: ExactAudioCopy v0.99pb5
#
DISCID=81087509
DTITLE=Jens Krüger - The Bridge
DYEAR=1900
DGENRE=Bluegrass
TTITLE0=The Builder
TTITLE1=The Keeper
TTITLE2=High up in the Sky
TTITLE3=Indian Summer
TTITLE4=With the turn of the tide
TTITLE5=Cork Harbor
TTITLE6=The gift
TTITLE7=Carolina Down
TTITLE8=Water from the well
EXTD=
EXTT0=
EXTT1=
EXTT2=
EXTT3=
EXTT4=
EXTT5=
EXTT6=
EXTT7=
EXTT8=
PLAYORDER=
